<?xml version="1.0" standalone="no"?>
<!DOCTYPE svg PUBLIC "-//W3C//DTD SVG 20010904//EN"
 "http://www.w3.org/TR/2001/REC-SVG-20010904/DTD/svg10.dtd">
<svg version="1.0" xmlns="http://www.w3.org/2000/svg"
 width="1385.000000pt" height="1385.000000pt" viewBox="0 0 1385.000000 1385.000000"
 preserveAspectRatio="xMidYMid meet">
<metadata>
Created by potrace 1.14, written by Peter Selinger 2001-2017
</metadata>
<g transform="translate(0.000000,1385.000000) scale(0.100000,-0.100000)"
fill="#000000" stroke="none">
<path d="M1125 11010 c-183 -24 -309 -82 -416 -189 -116 -115 -174 -247 -199
-451 -14 -116 -14 -3474 0 -3590 25 -203 83 -333 200 -451 111 -112 228 -163
430 -188 54 -7 437 -11 1052 -11 l968 0 0 -558 0 -558 -22 -44 c-51 -98 -186
-107 -252 -17 -20 28 -21 41 -24 478 l-3 449 -1179 0 -1180 0 0 -1157 c0 -689
4 -1192 10 -1243 31 -273 150 -462 350 -558 97 -46 168 -66 290 -81 105 -14
3624 -15 3720 -2 36 5 84 12 108 16 35 6 42 5 42 -9 0 -15 124 -16 1545 -16
l1545 0 0 1030 0 1030 -1295 0 -1295 0 0 1283 c0 823 -4 1313 -10 1367 -25
204 -83 336 -199 451 -87 87 -173 134 -311 171 -85 22 -85 22 -1112 25 l-1028
4 0 320 c0 346 2 361 55 409 23 22 36 25 95 25 59 0 72 -3 95 -25 49 -45 55
-74 55 -265 l0 -175 1180 0 1180 0 0 903 c0 561 -4 935 -10 987 -25 204 -83
336 -199 451 -87 87 -172 134 -311 171 l-85 23 -1865 1 c-1026 1 -1892 -2
-1925 -6z"/>
<path d="M5740 10100 l0 -920 1185 0 1185 0 0 920 0 920 -1185 0 -1185 0 0
-920z"/>
<path d="M8330 6925 l0 -4095 1180 0 1180 0 0 1736 0 1737 109 -5 c116 -5 148
-16 173 -60 10 -18 14 -307 18 -1413 l6 -1390 22 -85 c73 -273 233 -429 511
-497 58 -14 177 -17 944 -20 l877 -4 0 1603 c0 1060 -4 1632 -11 1688 -40 329
-201 533 -480 610 -60 16 -219 38 -286 40 -9 0 -13 23 -13 79 l0 78 108 6
c310 17 534 169 623 424 56 160 52 72 56 1578 3 939 1 1416 -7 1470 -40 307
-217 505 -524 588 l-81 22 -2202 2 -2203 3 0 -4095z m2660 1219 c0 -894 3
-856 -65 -888 -23 -11 -63 -16 -134 -16 l-101 0 0 855 0 855 150 0 150 0 0
-806z"/>
<path d="M5740 7040 l0 -1920 1185 0 1185 0 0 1920 0 1920 -1185 0 -1185 0 0
-1920z"/>
</g>
</svg>
